<svg width="25" height="23" viewBox="0 0 25 23" fill="none" xmlns="http://www.w3.org/2000/svg">
<path d="M12.1292 0.126953C14.9442 0.126953 17.2385 2.29049 17.2385 4.97363V7.48438H23.4084C23.6015 7.46357 23.7955 7.52518 23.9368 7.65625L23.9885 7.70996C24.1015 7.84157 24.1529 8.01492 24.1233 8.1875L24.1223 8.19043L21.9241 19.5439L21.925 19.5449C21.6078 21.2012 20.1087 22.411 18.345 22.4521H5.91431C4.15537 22.4247 2.65367 21.2244 2.33423 19.5732L0.135986 8.19043L0.13501 8.1875C0.101692 7.99351 0.170704 7.79856 0.314697 7.66309C0.381629 7.57029 0.473912 7.52465 0.565674 7.50391C0.659058 7.48284 0.76258 7.48438 0.846924 7.48438H7.02075V4.97363C7.02075 2.29051 9.31418 0.126992 12.1292 0.126953ZM3.75513 19.3584H3.7561C3.94141 20.3463 4.84536 21.0779 5.91724 21.0879H18.3411C19.413 21.078 20.3179 20.3462 20.5032 19.3584L22.554 8.84863H1.70435L3.75513 19.3584ZM12.1292 1.49121C10.0888 1.49122 8.44653 3.05695 8.44653 4.97363V7.48438H15.8118V4.97363C15.8118 3.05694 14.1695 1.49121 12.1292 1.49121Z" fill="white" stroke="white" stroke-width="0.254121"/>
</svg>
