<svg width="30" height="30" viewBox="0 0 30 30" fill="none" xmlns="http://www.w3.org/2000/svg">
<g clip-path="url(#clip0_7874_941)">
<path d="M27.3423 25.5064L20.5562 18.7203C21.8831 17.0822 22.6819 14.9995 22.6819 12.7321C22.6819 7.47569 18.4054 3.19922 13.149 3.19922C7.89263 3.19922 3.61621 7.47569 3.61621 12.7321C3.61621 17.9885 7.89268 22.2649 13.1491 22.2649C15.4165 22.2649 17.4992 21.4662 19.1373 20.1393L25.952 26.954C26.1606 27.1333 26.8017 27.5335 27.3811 26.954C27.8831 26.452 27.5252 25.6893 27.3423 25.5064ZM13.1491 20.258C8.99904 20.258 5.62314 16.8821 5.62314 12.7321C5.62314 8.58205 8.99904 5.20615 13.1491 5.20615C17.2991 5.20615 20.675 8.58205 20.675 12.7321C20.675 16.8821 17.2991 20.258 13.1491 20.258Z" fill="white"/>
</g>
<defs>
<clipPath id="clip0_7874_941">
<rect width="30" height="30" fill="white"/>
</clipPath>
</defs>
</svg>
